<?xml version="1.0" standalone="no"?>
<!DOCTYPE svg PUBLIC "-//W3C//DTD SVG 20010904//EN"
 "http://www.w3.org/TR/2001/REC-SVG-20010904/DTD/svg10.dtd">
<svg version="1.0" xmlns="http://www.w3.org/2000/svg"
 width="700.000000pt" height="700.000000pt" viewBox="0 0 700.000000 700.000000"
 preserveAspectRatio="xMidYMid meet">
<metadata>
Created by potrace 1.14, written by Peter Selinger 2001-2017
</metadata>
<g transform="translate(0.000000,700.000000) scale(0.100000,-0.100000)"
fill="#000000" stroke="none">
<path d="M1339 5046 c-2 -2 -31 -7 -64 -10 -402 -39 -770 -258 -993 -592 -71
-106 -180 -343 -198 -428 -2 -10 -8 -33 -13 -50 -10 -32 -37 -161 -46 -218 -3
-18 -8 -51 -11 -73 -10 -69 -12 -436 -2 -520 8 -67 37 -221 52 -275 56 -195
164 -393 286 -524 178 -190 477 -342 745 -380 22 -3 69 -10 105 -15 73 -10
577 -7 655 3 296 41 571 174 692 333 88 116 166 304 190 458 10 64 10 376 0
435 -58 331 -238 571 -530 705 -193 89 -488 137 -677 111 -306 -41 -557 -177
-688 -374 -89 -132 -151 -338 -147 -484 0 -27 -2 -48 -5 -48 -8 0 -29 101 -38
182 -9 82 -9 443 0 534 12 119 48 283 87 404 105 318 278 538 506 645 114 54
190 64 425 61 113 -2 216 -6 230 -10 13 -3 41 -8 62 -11 53 -8 147 -39 199
-65 60 -31 166 -118 225 -186 146 -169 178 -243 340 -794 70 -239 76 -261 150
-495 25 -82 47 -154 48 -160 1 -5 25 -82 53 -170 29 -88 73 -227 98 -310 26
-82 69 -222 97 -310 27 -88 71 -228 96 -311 45 -145 48 -151 72 -147 24 3 105
18 145 26 11 3 40 8 65 12 25 4 54 9 65 11 37 7 180 33 205 38 14 2 43 8 65
12 22 4 45 8 50 9 83 8 103 17 118 53 169 413 353 886 465 1197 22 61 58 159
80 220 l39 109 16 -54 c8 -30 32 -118 52 -195 40 -149 190 -690 205 -740 6
-16 39 -131 76 -255 36 -124 81 -275 100 -336 38 -125 25 -116 134 -93 25 5
56 11 70 13 14 2 52 9 85 15 33 6 74 13 90 16 17 2 39 7 50 9 11 2 88 16 170
31 83 15 153 30 156 34 3 3 83 191 178 416 95 226 179 425 187 443 8 17 21 49
30 70 8 20 19 46 24 57 5 11 39 94 75 185 37 91 72 179 80 195 7 17 27 66 44
110 18 44 36 89 41 100 54 114 338 889 445 1215 27 80 50 151 53 158 4 10 -87
12 -474 10 l-478 -3 -1 -38 c0 -35 1 -37 35 -39 39 -1 35 -1 105 -13 61 -10
52 -8 100 -29 46 -19 91 -59 109 -96 26 -49 25 -100 0 -223 -13 -67 -27 -134
-29 -149 -6 -34 -39 -174 -71 -306 -14 -57 -27 -111 -29 -120 -7 -38 -119
-437 -161 -577 -98 -324 -182 -576 -364 -1089 -15 -43 -30 -74 -32 -70 -20 35
-438 1541 -473 1703 -2 9 -29 120 -60 246 -31 127 -59 240 -61 253 -3 13 -18
81 -34 152 -17 70 -30 143 -30 160 0 74 58 132 146 145 21 4 48 8 59 10 11 2
32 4 48 4 25 1 27 4 27 41 l0 41 -723 -2 -723 -1 -3 -39 c-1 -26 2 -39 11 -39
211 -4 403 -106 476 -253 27 -55 103 -366 97 -398 -3 -13 -9 -49 -15 -79 -12
-64 -15 -80 -35 -180 -8 -41 -16 -86 -19 -100 -2 -14 -14 -68 -26 -120 -12
-52 -23 -102 -25 -110 -55 -254 -226 -839 -340 -1165 -25 -71 -47 -134 -48
-140 -2 -5 -5 -14 -8 -20 -4 -5 -14 -34 -23 -62 -10 -29 -19 -53 -21 -53 -4 0
-54 157 -59 184 -2 6 -13 43 -25 81 -13 39 -27 84 -31 100 -15 53 -45 152
-173 555 -128 404 -198 629 -243 780 -14 47 -30 96 -35 110 -31 88 -176 642
-183 700 -6 49 27 106 75 130 49 26 84 33 195 39 9 1 11 32 5 74 -1 7 -2084
10 -2092 3z m507 -1245 c71 -28 164 -92 215 -147 86 -94 160 -241 190 -379 7
-33 14 -67 16 -75 2 -8 6 -85 9 -170 8 -270 -36 -451 -154 -640 -40 -63 -173
-198 -217 -220 -17 -8 -37 -20 -45 -26 -22 -17 -119 -44 -175 -48 -172 -12
-341 91 -468 284 -59 89 -116 223 -132 309 -38 211 -38 410 1 566 56 221 165
387 324 494 61 41 102 61 140 68 13 2 27 6 29 9 2 2 47 4 100 4 81 -1 107 -5
167 -29z"/>
</g>
</svg>
