<svg width="1775.601" height="94.505" viewBox="0 0 1775.601 94.505" xmlns="http://www.w3.org/2000/svg"><g id="svgGroup" stroke-linecap="round" fill-rule="nonzero" font-size="9pt" stroke="#a2c3e8" stroke-width="0.25mm" fill="#a2c3e8" style="stroke:#a2c3e8;stroke-width:0.25mm;fill:#a2c3e8"><path d="M 1234.601 24.005 L 1234.601 62.105 A 11.262 11.262 0 0 0 1234.762 64.073 Q 1234.958 65.179 1235.395 66.053 A 5.442 5.442 0 0 0 1236.251 67.305 A 5.511 5.511 0 0 0 1238.183 68.696 A 5.412 5.412 0 0 0 1240.301 69.105 A 6.962 6.962 0 0 0 1244.856 67.405 A 9.829 9.829 0 0 0 1245.801 66.505 A 14.359 14.359 0 0 0 1247.719 63.837 Q 1248.486 62.485 1249.111 60.826 A 28.559 28.559 0 0 0 1249.651 59.255 Q 1251.101 54.605 1251.101 48.405 A 43.234 43.234 0 0 0 1249.716 37.326 A 38.694 38.694 0 0 0 1248.301 33.005 Q 1245.501 25.905 1240.401 20.655 A 35.358 35.358 0 0 0 1228.262 12.55 A 40.399 40.399 0 0 0 1228.151 12.505 A 39.689 39.689 0 0 0 1217.072 9.834 A 48.565 48.565 0 0 0 1212.301 9.605 Q 1203.901 9.605 1196.651 12.555 Q 1189.401 15.505 1184.001 20.755 Q 1178.601 26.005 1175.601 33.055 A 38.076 38.076 0 0 0 1172.66 46.095 A 44.534 44.534 0 0 0 1172.601 48.405 A 38.672 38.672 0 0 0 1174.066 59.173 A 34.988 34.988 0 0 0 1175.501 63.205 Q 1178.401 70.005 1183.551 75.005 Q 1188.701 80.005 1195.751 82.705 A 41.408 41.408 0 0 0 1208.466 85.339 A 48.244 48.244 0 0 0 1211.001 85.405 Q 1215.401 85.405 1220.651 84.055 A 32.86 32.86 0 0 0 1226.059 82.172 A 26.409 26.409 0 0 0 1229.801 80.105 L 1232.601 85.205 Q 1229.943 86.977 1226.267 88.312 A 40.549 40.549 0 0 1 1226.151 88.355 Q 1222.401 89.705 1218.451 90.455 A 43.58 43.58 0 0 1 1213.919 91.081 A 35.397 35.397 0 0 1 1211.001 91.205 Q 1201.501 91.205 1193.351 88.055 Q 1185.201 84.905 1179.201 79.105 Q 1173.201 73.305 1169.851 65.455 A 42.308 42.308 0 0 1 1166.553 50.684 A 49.198 49.198 0 0 1 1166.501 48.405 Q 1166.501 38.905 1169.951 30.755 Q 1173.401 22.605 1179.651 16.605 Q 1185.901 10.605 1194.251 7.305 A 47.872 47.872 0 0 1 1209.822 4.059 A 55.55 55.55 0 0 1 1212.301 4.005 A 49.959 49.959 0 0 1 1224.386 5.426 A 43.927 43.927 0 0 1 1230.201 7.305 Q 1238.401 10.605 1244.401 16.505 Q 1250.401 22.405 1253.751 30.505 Q 1257.101 38.605 1257.101 48.205 Q 1257.101 56.105 1254.901 61.905 A 25.371 25.371 0 0 1 1252.641 66.492 A 18.607 18.607 0 0 1 1248.751 70.955 Q 1244.801 74.205 1239.601 74.205 A 12.751 12.751 0 0 1 1235.984 73.713 A 10.317 10.317 0 0 1 1232.351 71.805 A 9.011 9.011 0 0 1 1229.472 67.526 A 13.245 13.245 0 0 1 1228.901 64.805 L 1228.801 61.005 Q 1225.801 66.605 1220.651 69.605 A 22.248 22.248 0 0 1 1209.593 72.602 A 26.238 26.238 0 0 1 1209.201 72.605 Q 1202.601 72.605 1197.201 69.455 Q 1191.801 66.305 1188.501 60.805 A 23.187 23.187 0 0 1 1185.37 51.28 A 29.105 29.105 0 0 1 1185.201 48.105 A 28.068 28.068 0 0 1 1186.15 40.688 A 24.098 24.098 0 0 1 1188.201 35.555 Q 1191.201 30.005 1196.401 26.705 Q 1201.601 23.405 1208.501 23.405 A 24.86 24.86 0 0 1 1213.332 23.856 A 20.079 20.079 0 0 1 1217.151 25.005 A 23.652 23.652 0 0 1 1220.888 26.945 A 18.716 18.716 0 0 1 1223.601 29.055 A 18.722 18.722 0 0 1 1225.388 30.976 Q 1226.591 32.481 1227.201 34.005 L 1227.201 24.005 L 1234.601 24.005 Z M 1209.801 30.105 A 17.334 17.334 0 0 0 1204.802 30.802 A 14.896 14.896 0 0 0 1201.151 32.455 Q 1197.401 34.805 1195.251 38.805 A 18.15 18.15 0 0 0 1193.176 45.965 A 22.036 22.036 0 0 0 1193.101 47.805 Q 1193.101 52.905 1195.251 57.005 Q 1197.401 61.105 1201.201 63.505 A 15.614 15.614 0 0 0 1208.618 65.862 A 19.162 19.162 0 0 0 1209.901 65.905 Q 1215.001 65.905 1218.801 63.555 Q 1222.601 61.205 1224.701 57.055 A 19.727 19.727 0 0 0 1226.782 48.844 A 23.255 23.255 0 0 0 1226.801 47.905 Q 1226.801 42.805 1224.651 38.805 Q 1222.501 34.805 1218.701 32.455 A 15.67 15.67 0 0 0 1212.418 30.27 A 20.1 20.1 0 0 0 1209.801 30.105 Z M 549.101 74.905 L 529.501 22.305 L 537.601 22.305 L 553.201 67.505 L 568.501 22.305 L 576.701 22.305 L 592.201 67.505 L 607.601 22.305 L 615.701 22.305 L 596.201 74.905 L 588.001 74.905 L 572.601 31.305 L 557.201 74.905 L 549.101 74.905 Z M 383.701 26.705 L 380.701 32.305 A 27.382 27.382 0 0 0 375.201 29.745 A 31.499 31.499 0 0 0 373.801 29.305 A 27.709 27.709 0 0 0 368.556 28.302 A 24.236 24.236 0 0 0 366.401 28.205 A 18.333 18.333 0 0 0 363.058 28.493 Q 361.085 28.859 359.483 29.689 A 11.016 11.016 0 0 0 359.001 29.955 A 5.74 5.74 0 0 0 356.124 34.109 A 8.629 8.629 0 0 0 356.001 35.605 A 6.731 6.731 0 0 0 356.342 37.797 A 5.585 5.585 0 0 0 358.151 40.355 A 14.786 14.786 0 0 0 360.579 41.943 Q 361.962 42.675 363.651 43.255 Q 367.001 44.405 370.701 45.505 Q 374.401 46.605 377.801 48.255 A 14.64 14.64 0 0 1 382.467 51.761 A 14.13 14.13 0 0 1 383.301 52.805 A 10.449 10.449 0 0 1 384.931 56.364 Q 385.305 57.814 385.381 59.519 A 19.914 19.914 0 0 1 385.401 60.405 A 15.508 15.508 0 0 1 384.981 64.107 A 11.223 11.223 0 0 1 382.651 68.755 A 15.922 15.922 0 0 1 376.613 73.141 A 19.224 19.224 0 0 1 375.551 73.555 Q 371.201 75.105 366.101 75.105 Q 360.501 75.105 355.101 73.205 Q 349.701 71.305 345.901 67.805 L 348.901 62.505 A 23.775 23.775 0 0 0 355.177 66.588 A 28.224 28.224 0 0 0 357.051 67.355 A 28.346 28.346 0 0 0 363.22 68.898 A 24.773 24.773 0 0 0 366.401 69.105 A 19.61 19.61 0 0 0 369.714 68.836 A 15.834 15.834 0 0 0 372.051 68.255 A 10.441 10.441 0 0 0 374.347 67.182 A 8.392 8.392 0 0 0 376.151 65.655 Q 377.701 63.905 377.701 61.205 Q 377.74 59.896 377.442 58.815 A 5.673 5.673 0 0 0 375.751 56.055 Q 373.701 54.205 370.351 53.005 Q 367.001 51.805 363.251 50.705 Q 359.501 49.605 356.151 47.955 Q 352.801 46.305 350.701 43.555 Q 348.896 41.191 348.642 37.388 A 19.282 19.282 0 0 1 348.601 36.105 A 15.087 15.087 0 0 1 348.997 32.551 A 10.74 10.74 0 0 1 351.201 28.105 Q 353.801 25.005 357.951 23.505 A 25.565 25.565 0 0 1 365.343 22.045 A 29.742 29.742 0 0 1 366.901 22.005 Q 371.601 22.005 376.001 23.255 A 29.936 29.936 0 0 1 380.603 24.961 A 24.17 24.17 0 0 1 383.701 26.705 Z M 429.001 26.705 L 426.001 32.305 A 27.382 27.382 0 0 0 420.501 29.745 A 31.499 31.499 0 0 0 419.101 29.305 A 27.709 27.709 0 0 0 413.856 28.302 A 24.236 24.236 0 0 0 411.701 28.205 A 18.333 18.333 0 0 0 408.358 28.493 Q 406.385 28.859 404.783 29.689 A 11.016 11.016 0 0 0 404.301 29.955 A 5.74 5.74 0 0 0 401.424 34.109 A 8.629 8.629 0 0 0 401.301 35.605 A 6.731 6.731 0 0 0 401.642 37.797 A 5.585 5.585 0 0 0 403.451 40.355 A 14.786 14.786 0 0 0 405.879 41.943 Q 407.262 42.675 408.951 43.255 Q 412.301 44.405 416.001 45.505 Q 419.701 46.605 423.101 48.255 A 14.64 14.64 0 0 1 427.767 51.761 A 14.13 14.13 0 0 1 428.601 52.805 A 10.449 10.449 0 0 1 430.231 56.364 Q 430.605 57.814 430.681 59.519 A 19.914 19.914 0 0 1 430.701 60.405 A 15.508 15.508 0 0 1 430.281 64.107 A 11.223 11.223 0 0 1 427.951 68.755 A 15.922 15.922 0 0 1 421.913 73.141 A 19.224 19.224 0 0 1 420.851 73.555 Q 416.501 75.105 411.401 75.105 Q 405.801 75.105 400.401 73.205 Q 395.001 71.305 391.201 67.805 L 394.201 62.505 A 23.775 23.775 0 0 0 400.477 66.588 A 28.224 28.224 0 0 0 402.351 67.355 A 28.346 28.346 0 0 0 408.52 68.898 A 24.773 24.773 0 0 0 411.701 69.105 A 19.61 19.61 0 0 0 415.014 68.836 A 15.834 15.834 0 0 0 417.351 68.255 A 10.441 10.441 0 0 0 419.647 67.182 A 8.392 8.392 0 0 0 421.451 65.655 Q 423.001 63.905 423.001 61.205 Q 423.04 59.896 422.742 58.815 A 5.673 5.673 0 0 0 421.051 56.055 Q 419.001 54.205 415.651 53.005 Q 412.301 51.805 408.551 50.705 Q 404.801 49.605 401.451 47.955 Q 398.101 46.305 396.001 43.555 Q 394.196 41.191 393.942 37.388 A 19.282 19.282 0 0 1 393.901 36.105 A 15.087 15.087 0 0 1 394.297 32.551 A 10.74 10.74 0 0 1 396.501 28.105 Q 399.101 25.005 403.251 23.505 A 25.565 25.565 0 0 1 410.643 22.045 A 29.742 29.742 0 0 1 412.201 22.005 Q 416.901 22.005 421.301 23.255 A 29.936 29.936 0 0 1 425.903 24.961 A 24.17 24.17 0 0 1 429.001 26.705 Z M 46.401 29.805 L 42.001 34.905 Q 39.101 32.005 35.151 30.355 A 21.452 21.452 0 0 0 28.891 28.821 A 26.1 26.1 0 0 0 26.401 28.705 A 19.939 19.939 0 0 0 20.467 29.563 A 17.557 17.557 0 0 0 16.751 31.205 Q 12.501 33.705 10.101 38.205 A 20.284 20.284 0 0 0 7.938 45.033 A 26.076 26.076 0 0 0 7.701 48.605 A 24.692 24.692 0 0 0 8.339 54.33 A 19.996 19.996 0 0 0 10.101 59.055 Q 12.501 63.605 16.751 66.155 A 18.017 18.017 0 0 0 24.986 68.66 A 21.952 21.952 0 0 0 26.401 68.705 A 25.803 25.803 0 0 0 32.14 68.088 A 21.841 21.841 0 0 0 35.701 66.955 Q 39.901 65.205 42.801 61.805 L 47.201 66.205 A 23.318 23.318 0 0 1 39.459 72.218 A 27.502 27.502 0 0 1 38.301 72.755 A 28.099 28.099 0 0 1 30.61 74.827 A 35.549 35.549 0 0 1 26.101 75.105 A 29.473 29.473 0 0 1 18.505 74.159 A 24.809 24.809 0 0 1 12.601 71.755 Q 6.701 68.405 3.351 62.405 A 26.386 26.386 0 0 1 0.237 52.621 A 33.28 33.28 0 0 1 0.001 48.605 Q 0.001 40.805 3.351 34.855 Q 6.701 28.905 12.601 25.505 A 25.521 25.521 0 0 1 22.857 22.267 A 31.679 31.679 0 0 1 26.101 22.105 A 34.528 34.528 0 0 1 32.548 22.683 A 27.769 27.769 0 0 1 37.651 24.155 Q 42.801 26.205 46.401 29.805 Z M 1611.701 29.805 L 1607.301 34.905 Q 1604.401 32.005 1600.451 30.355 A 21.452 21.452 0 0 0 1594.191 28.821 A 26.1 26.1 0 0 0 1591.701 28.705 A 19.939 19.939 0 0 0 1585.767 29.563 A 17.557 17.557 0 0 0 1582.051 31.205 Q 1577.801 33.705 1575.401 38.205 A 20.284 20.284 0 0 0 1573.238 45.033 A 26.076 26.076 0 0 0 1573.001 48.605 A 24.692 24.692 0 0 0 1573.639 54.33 A 19.996 19.996 0 0 0 1575.401 59.055 Q 1577.801 63.605 1582.051 66.155 A 18.017 18.017 0 0 0 1590.286 68.66 A 21.952 21.952 0 0 0 1591.701 68.705 A 25.803 25.803 0 0 0 1597.44 68.088 A 21.841 21.841 0 0 0 1601.001 66.955 Q 1605.201 65.205 1608.101 61.805 L 1612.501 66.205 A 23.318 23.318 0 0 1 1604.759 72.218 A 27.502 27.502 0 0 1 1603.601 72.755 A 28.099 28.099 0 0 1 1595.91 74.827 A 35.549 35.549 0 0 1 1591.401 75.105 A 29.473 29.473 0 0 1 1583.805 74.159 A 24.809 24.809 0 0 1 1577.901 71.755 Q 1572.001 68.405 1568.651 62.405 A 26.386 26.386 0 0 1 1565.537 52.621 A 33.28 33.28 0 0 1 1565.301 48.605 Q 1565.301 40.805 1568.651 34.855 Q 1572.001 28.905 1577.901 25.505 A 25.521 25.521 0 0 1 1588.157 22.267 A 31.679 31.679 0 0 1 1591.401 22.105 A 34.528 34.528 0 0 1 1597.848 22.683 A 27.769 27.769 0 0 1 1602.951 24.155 Q 1608.101 26.205 1611.701 29.805 Z M 1316.501 22.305 L 1316.501 69.405 A 30.221 30.221 0 0 1 1315.823 75.952 A 23.008 23.008 0 0 1 1313.201 82.705 Q 1309.901 88.305 1304.001 91.405 A 26.354 26.354 0 0 1 1296.275 93.983 A 36.057 36.057 0 0 1 1290.001 94.505 A 32.972 32.972 0 0 1 1281.901 93.536 A 29.306 29.306 0 0 1 1278.501 92.455 Q 1273.201 90.405 1268.401 86.705 L 1272.001 81.305 A 32.905 32.905 0 0 0 1277.683 85.204 A 28.945 28.945 0 0 0 1280.201 86.405 Q 1284.501 88.205 1289.701 88.205 A 24.632 24.632 0 0 0 1294.639 87.732 A 18.428 18.428 0 0 0 1299.751 85.905 Q 1304.001 83.605 1306.351 79.455 A 17.776 17.776 0 0 0 1308.37 73.662 A 23.9 23.9 0 0 0 1308.701 69.605 L 1308.701 22.305 L 1316.501 22.305 Z M 955.401 74.905 L 955.401 44.405 Q 955.401 37.205 951.451 33.155 A 12.984 12.984 0 0 0 944.953 29.583 A 19.533 19.533 0 0 0 940.501 29.105 A 20.632 20.632 0 0 0 934.831 29.913 A 15.24 15.24 0 0 0 927.401 34.755 Q 922.701 40.305 922.701 49.105 L 920.001 49.105 A 49.911 49.911 0 0 1 920.362 42.912 Q 920.764 39.706 921.612 37.018 A 24.47 24.47 0 0 1 922.801 33.955 A 20.881 20.881 0 0 1 926.467 28.479 A 18.291 18.291 0 0 1 930.851 25.055 Q 936.101 22.105 943.201 22.105 Q 949.501 22.105 954.001 24.605 Q 958.501 27.105 960.851 31.655 A 20.3 20.3 0 0 1 962.718 37.184 Q 963.201 39.705 963.201 42.605 L 963.201 74.905 L 955.401 74.905 Z M 889.201 74.905 L 889.201 44.405 Q 889.201 37.205 885.251 33.155 A 12.984 12.984 0 0 0 878.753 29.583 A 19.533 19.533 0 0 0 874.301 29.105 A 20.632 20.632 0 0 0 868.631 29.913 A 15.24 15.24 0 0 0 861.201 34.755 Q 856.501 40.305 856.501 49.105 L 853.801 49.105 A 49.911 49.911 0 0 1 854.162 42.912 Q 854.564 39.706 855.412 37.018 A 24.47 24.47 0 0 1 856.601 33.955 A 20.881 20.881 0 0 1 860.267 28.479 A 18.291 18.291 0 0 1 864.651 25.055 Q 869.901 22.105 877.001 22.105 Q 883.301 22.105 887.801 24.605 Q 892.301 27.105 894.651 31.655 A 20.3 20.3 0 0 1 896.518 37.184 Q 897.001 39.705 897.001 42.605 L 897.001 74.905 L 889.201 74.905 Z M 202.501 74.905 L 202.501 44.405 A 21.466 21.466 0 0 0 202.04 39.821 Q 201.16 35.795 198.601 33.105 Q 194.701 29.005 187.901 29.005 A 19.48 19.48 0 0 0 182.212 29.942 A 15.157 15.157 0 0 0 175.201 34.755 A 19.457 19.457 0 0 0 171.195 43.199 A 27.872 27.872 0 0 0 170.601 49.105 L 167.901 49.105 A 50.807 50.807 0 0 1 168.256 42.912 Q 168.646 39.736 169.467 37.068 A 24.783 24.783 0 0 1 170.651 33.955 A 21.274 21.274 0 0 1 174.05 28.685 A 17.988 17.988 0 0 1 178.501 25.055 A 21.47 21.47 0 0 1 185.459 22.555 A 29.2 29.2 0 0 1 190.701 22.105 A 25.031 25.031 0 0 1 195.713 22.583 A 18.534 18.534 0 0 1 201.201 24.605 Q 205.601 27.105 207.951 31.655 A 20.3 20.3 0 0 1 209.818 37.184 Q 210.301 39.705 210.301 42.605 L 210.301 74.905 L 202.501 74.905 Z M 766.001 74.905 L 766.001 44.405 A 21.466 21.466 0 0 0 765.54 39.821 Q 764.66 35.795 762.101 33.105 Q 758.201 29.005 751.401 29.005 A 19.48 19.48 0 0 0 745.712 29.942 A 15.157 15.157 0 0 0 738.701 34.755 A 19.457 19.457 0 0 0 734.695 43.199 A 27.872 27.872 0 0 0 734.101 49.105 L 731.401 49.105 A 50.807 50.807 0 0 1 731.756 42.912 Q 732.146 39.736 732.967 37.068 A 24.783 24.783 0 0 1 734.151 33.955 A 21.274 21.274 0 0 1 737.55 28.685 A 17.988 17.988 0 0 1 742.001 25.055 A 21.47 21.47 0 0 1 748.959 22.555 A 29.2 29.2 0 0 1 754.201 22.105 A 25.031 25.031 0 0 1 759.213 22.583 A 18.534 18.534 0 0 1 764.701 24.605 Q 769.101 27.105 771.451 31.655 A 20.3 20.3 0 0 1 773.318 37.184 Q 773.801 39.705 773.801 42.605 L 773.801 74.905 L 766.001 74.905 Z M 1413.501 74.905 L 1413.501 44.405 A 21.466 21.466 0 0 0 1413.04 39.821 Q 1412.16 35.795 1409.601 33.105 Q 1405.701 29.005 1398.901 29.005 A 19.48 19.48 0 0 0 1393.212 29.942 A 15.157 15.157 0 0 0 1386.201 34.755 A 19.457 19.457 0 0 0 1382.195 43.199 A 27.872 27.872 0 0 0 1381.601 49.105 L 1378.901 49.105 A 50.807 50.807 0 0 1 1379.256 42.912 Q 1379.646 39.736 1380.467 37.068 A 24.783 24.783 0 0 1 1381.651 33.955 A 21.274 21.274 0 0 1 1385.05 28.685 A 17.988 17.988 0 0 1 1389.501 25.055 A 21.47 21.47 0 0 1 1396.459 22.555 A 29.2 29.2 0 0 1 1401.701 22.105 A 25.031 25.031 0 0 1 1406.713 22.583 A 18.534 18.534 0 0 1 1412.201 24.605 Q 1416.601 27.105 1418.951 31.655 A 20.3 20.3 0 0 1 1420.818 37.184 Q 1421.301 39.705 1421.301 42.605 L 1421.301 74.905 L 1413.501 74.905 Z M 1767.801 74.905 L 1767.801 44.405 A 21.466 21.466 0 0 0 1767.34 39.821 Q 1766.46 35.795 1763.901 33.105 Q 1760.001 29.005 1753.201 29.005 A 19.48 19.48 0 0 0 1747.512 29.942 A 15.157 15.157 0 0 0 1740.501 34.755 A 19.457 19.457 0 0 0 1736.495 43.199 A 27.872 27.872 0 0 0 1735.901 49.105 L 1733.201 49.105 A 50.807 50.807 0 0 1 1733.556 42.912 Q 1733.946 39.736 1734.767 37.068 A 24.783 24.783 0 0 1 1735.951 33.955 A 21.274 21.274 0 0 1 1739.35 28.685 A 17.988 17.988 0 0 1 1743.801 25.055 A 21.47 21.47 0 0 1 1750.759 22.555 A 29.2 29.2 0 0 1 1756.001 22.105 A 25.031 25.031 0 0 1 1761.013 22.583 A 18.534 18.534 0 0 1 1766.501 24.605 Q 1770.901 27.105 1773.251 31.655 A 20.3 20.3 0 0 1 1775.118 37.184 Q 1775.601 39.705 1775.601 42.605 L 1775.601 74.905 L 1767.801 74.905 Z M 162.801 74.905 L 162.801 44.405 A 21.735 21.735 0 0 0 162.346 39.821 Q 161.701 36.833 160.143 34.581 A 12.743 12.743 0 0 0 158.951 33.105 A 12.61 12.61 0 0 0 152.308 29.425 A 18.963 18.963 0 0 0 148.201 29.005 A 19.48 19.48 0 0 0 142.512 29.942 A 15.157 15.157 0 0 0 135.501 34.755 A 19.457 19.457 0 0 0 131.495 43.199 A 27.872 27.872 0 0 0 130.901 49.105 L 128.301 49.105 A 50.807 50.807 0 0 1 128.656 42.912 Q 129.046 39.736 129.867 37.068 A 24.783 24.783 0 0 1 131.051 33.955 A 21.274 21.274 0 0 1 134.45 28.685 A 17.988 17.988 0 0 1 138.901 25.055 A 21.618 21.618 0 0 1 146.215 22.486 A 28.901 28.901 0 0 1 151.001 22.105 A 25.654 25.654 0 0 1 155.903 22.55 Q 159.036 23.159 161.551 24.605 Q 165.901 27.105 168.251 31.655 A 20.3 20.3 0 0 1 170.118 37.184 Q 170.601 39.705 170.601 42.605 L 170.601 74.905 L 162.801 74.905 Z M 726.301 74.905 L 726.301 44.405 A 21.735 21.735 0 0 0 725.846 39.821 Q 725.201 36.833 723.643 34.581 A 12.743 12.743 0 0 0 722.451 33.105 A 12.61 12.61 0 0 0 715.808 29.425 A 18.963 18.963 0 0 0 711.701 29.005 A 19.48 19.48 0 0 0 706.012 29.942 A 15.157 15.157 0 0 0 699.001 34.755 A 19.457 19.457 0 0 0 694.995 43.199 A 27.872 27.872 0 0 0 694.401 49.105 L 691.801 49.105 A 50.807 50.807 0 0 1 692.156 42.912 Q 692.546 39.736 693.367 37.068 A 24.783 24.783 0 0 1 694.551 33.955 A 21.274 21.274 0 0 1 697.95 28.685 A 17.988 17.988 0 0 1 702.401 25.055 A 21.618 21.618 0 0 1 709.715 22.486 A 28.901 28.901 0 0 1 714.501 22.105 A 25.654 25.654 0 0 1 719.403 22.55 Q 722.536 23.159 725.051 24.605 Q 729.401 27.105 731.751 31.655 A 20.3 20.3 0 0 1 733.618 37.184 Q 734.101 39.705 734.101 42.605 L 734.101 74.905 L 726.301 74.905 Z M 1373.801 74.905 L 1373.801 44.405 A 21.735 21.735 0 0 0 1373.346 39.821 Q 1372.701 36.833 1371.143 34.581 A 12.743 12.743 0 0 0 1369.951 33.105 A 12.61 12.61 0 0 0 1363.308 29.425 A 18.963 18.963 0 0 0 1359.201 29.005 A 19.48 19.48 0 0 0 1353.512 29.942 A 15.157 15.157 0 0 0 1346.501 34.755 A 19.457 19.457 0 0 0 1342.495 43.199 A 27.872 27.872 0 0 0 1341.901 49.105 L 1339.301 49.105 A 50.807 50.807 0 0 1 1339.656 42.912 Q 1340.046 39.736 1340.867 37.068 A 24.783 24.783 0 0 1 1342.051 33.955 A 21.274 21.274 0 0 1 1345.45 28.685 A 17.988 17.988 0 0 1 1349.901 25.055 A 21.618 21.618 0 0 1 1357.215 22.486 A 28.901 28.901 0 0 1 1362.001 22.105 A 25.654 25.654 0 0 1 1366.903 22.55 Q 1370.036 23.159 1372.551 24.605 Q 1376.901 27.105 1379.251 31.655 A 20.3 20.3 0 0 1 1381.118 37.184 Q 1381.601 39.705 1381.601 42.605 L 1381.601 74.905 L 1373.801 74.905 Z M 1728.101 74.905 L 1728.101 44.405 A 21.735 21.735 0 0 0 1727.646 39.821 Q 1727.001 36.833 1725.443 34.581 A 12.743 12.743 0 0 0 1724.251 33.105 A 12.61 12.61 0 0 0 1717.608 29.425 A 18.963 18.963 0 0 0 1713.501 29.005 A 19.48 19.48 0 0 0 1707.812 29.942 A 15.157 15.157 0 0 0 1700.801 34.755 A 19.457 19.457 0 0 0 1696.795 43.199 A 27.872 27.872 0 0 0 1696.201 49.105 L 1693.601 49.105 A 50.807 50.807 0 0 1 1693.956 42.912 Q 1694.346 39.736 1695.167 37.068 A 24.783 24.783 0 0 1 1696.351 33.955 A 21.274 21.274 0 0 1 1699.75 28.685 A 17.988 17.988 0 0 1 1704.201 25.055 A 21.618 21.618 0 0 1 1711.515 22.486 A 28.901 28.901 0 0 1 1716.301 22.105 A 25.654 25.654 0 0 1 1721.203 22.55 Q 1724.336 23.159 1726.851 24.605 Q 1731.201 27.105 1733.551 31.655 A 20.3 20.3 0 0 1 1735.418 37.184 Q 1735.901 39.705 1735.901 42.605 L 1735.901 74.905 L 1728.101 74.905 Z M 329.101 50.205 L 311.401 50.205 A 31.768 31.768 0 0 0 307.764 50.399 Q 303.791 50.858 301.401 52.405 Q 298.001 54.605 298.001 59.105 A 10.079 10.079 0 0 0 298.601 62.649 A 8.861 8.861 0 0 0 301.251 66.355 A 11.003 11.003 0 0 0 305.508 68.54 Q 307.146 68.99 309.09 69.081 A 21.529 21.529 0 0 0 310.101 69.105 A 24.288 24.288 0 0 0 314.863 68.656 A 19.621 19.621 0 0 0 318.401 67.605 A 16.538 16.538 0 0 0 323.03 64.815 A 15.262 15.262 0 0 0 324.551 63.305 A 14.734 14.734 0 0 0 327.509 57.962 A 17.928 17.928 0 0 0 327.901 56.505 L 329.901 62.805 A 21.024 21.024 0 0 1 326.312 68.419 A 18.215 18.215 0 0 1 321.601 72.155 A 23.885 23.885 0 0 1 313.944 74.776 A 31.97 31.97 0 0 1 308.601 75.205 Q 303.201 75.205 299.151 73.105 A 16.328 16.328 0 0 1 294.902 69.988 A 14.742 14.742 0 0 1 292.901 67.405 A 15.099 15.099 0 0 1 290.709 59.864 A 18.073 18.073 0 0 1 290.701 59.305 A 14.291 14.291 0 0 1 291.626 54.065 A 12.862 12.862 0 0 1 295.901 48.505 Q 301.101 44.505 310.401 44.405 L 329.101 44.405 L 329.101 50.205 Z M 327.901 74.905 L 335.501 74.905 L 335.401 40.205 A 23.443 23.443 0 0 0 334.988 35.993 A 16.262 16.262 0 0 0 330.101 26.955 Q 326.566 23.658 320.907 22.602 A 31.697 31.697 0 0 0 315.101 22.105 A 41.391 41.391 0 0 0 311.08 22.291 A 30.781 30.781 0 0 0 307.001 22.955 Q 303.401 23.805 300.201 25.405 A 51.714 51.714 0 0 0 297.67 26.761 A 63.584 63.584 0 0 0 293.601 29.305 L 296.901 34.405 A 44.056 44.056 0 0 1 299.719 32.565 A 35.944 35.944 0 0 1 305.101 29.905 Q 309.201 28.305 313.601 28.305 A 25.63 25.63 0 0 1 316.253 28.436 Q 321.308 28.962 324.151 31.605 A 10.734 10.734 0 0 1 327.281 37.099 A 16.258 16.258 0 0 1 327.701 40.905 L 327.901 74.905 Z M 825.001 50.205 L 807.301 50.205 A 31.768 31.768 0 0 0 803.664 50.399 Q 799.691 50.858 797.301 52.405 Q 793.901 54.605 793.901 59.105 A 10.079 10.079 0 0 0 794.501 62.649 A 8.861 8.861 0 0 0 797.151 66.355 A 11.003 11.003 0 0 0 801.408 68.54 Q 803.046 68.99 804.99 69.081 A 21.529 21.529 0 0 0 806.001 69.105 A 24.288 24.288 0 0 0 810.763 68.656 A 19.621 19.621 0 0 0 814.301 67.605 A 16.538 16.538 0 0 0 818.93 64.815 A 15.262 15.262 0 0 0 820.451 63.305 A 14.734 14.734 0 0 0 823.409 57.962 A 17.928 17.928 0 0 0 823.801 56.505 L 825.801 62.805 A 21.024 21.024 0 0 1 822.212 68.419 A 18.215 18.215 0 0 1 817.501 72.155 A 23.885 23.885 0 0 1 809.844 74.776 A 31.97 31.97 0 0 1 804.501 75.205 Q 799.101 75.205 795.051 73.105 A 16.328 16.328 0 0 1 790.802 69.988 A 14.742 14.742 0 0 1 788.801 67.405 A 15.099 15.099 0 0 1 786.609 59.864 A 18.073 18.073 0 0 1 786.601 59.305 A 14.291 14.291 0 0 1 787.526 54.065 A 12.862 12.862 0 0 1 791.801 48.505 Q 797.001 44.505 806.301 44.405 L 825.001 44.405 L 825.001 50.205 Z M 823.801 74.905 L 831.401 74.905 L 831.301 40.205 A 23.443 23.443 0 0 0 830.888 35.993 A 16.262 16.262 0 0 0 826.001 26.955 Q 822.466 23.658 816.807 22.602 A 31.697 31.697 0 0 0 811.001 22.105 A 41.391 41.391 0 0 0 806.98 22.291 A 30.781 30.781 0 0 0 802.901 22.955 Q 799.301 23.805 796.101 25.405 A 51.714 51.714 0 0 0 793.57 26.761 A 63.584 63.584 0 0 0 789.501 29.305 L 792.801 34.405 A 44.056 44.056 0 0 1 795.619 32.565 A 35.944 35.944 0 0 1 801.001 29.905 Q 805.101 28.305 809.501 28.305 A 25.63 25.63 0 0 1 812.153 28.436 Q 817.208 28.962 820.051 31.605 A 10.734 10.734 0 0 1 823.181 37.099 A 16.258 16.258 0 0 1 823.601 40.905 L 823.801 74.905 Z M 1472.501 50.205 L 1454.801 50.205 A 31.768 31.768 0 0 0 1451.164 50.399 Q 1447.191 50.858 1444.801 52.405 Q 1441.401 54.605 1441.401 59.105 A 10.079 10.079 0 0 0 1442.001 62.649 A 8.861 8.861 0 0 0 1444.651 66.355 A 11.003 11.003 0 0 0 1448.908 68.54 Q 1450.546 68.99 1452.49 69.081 A 21.529 21.529 0 0 0 1453.501 69.105 A 24.288 24.288 0 0 0 1458.263 68.656 A 19.621 19.621 0 0 0 1461.801 67.605 A 16.538 16.538 0 0 0 1466.43 64.815 A 15.262 15.262 0 0 0 1467.951 63.305 A 14.734 14.734 0 0 0 1470.909 57.962 A 17.928 17.928 0 0 0 1471.301 56.505 L 1473.301 62.805 A 21.024 21.024 0 0 1 1469.712 68.419 A 18.215 18.215 0 0 1 1465.001 72.155 A 23.885 23.885 0 0 1 1457.344 74.776 A 31.97 31.97 0 0 1 1452.001 75.205 Q 1446.601 75.205 1442.551 73.105 A 16.328 16.328 0 0 1 1438.302 69.988 A 14.742 14.742 0 0 1 1436.301 67.405 A 15.099 15.099 0 0 1 1434.109 59.864 A 18.073 18.073 0 0 1 1434.101 59.305 A 14.291 14.291 0 0 1 1435.026 54.065 A 12.862 12.862 0 0 1 1439.301 48.505 Q 1444.501 44.505 1453.801 44.405 L 1472.501 44.405 L 1472.501 50.205 Z M 1471.301 74.905 L 1478.901 74.905 L 1478.801 40.205 A 23.443 23.443 0 0 0 1478.388 35.993 A 16.262 16.262 0 0 0 1473.501 26.955 Q 1469.966 23.658 1464.307 22.602 A 31.697 31.697 0 0 0 1458.501 22.105 A 41.391 41.391 0 0 0 1454.48 22.291 A 30.781 30.781 0 0 0 1450.401 22.955 Q 1446.801 23.805 1443.601 25.405 A 51.714 51.714 0 0 0 1441.07 26.761 A 63.584 63.584 0 0 0 1437.001 29.305 L 1440.301 34.405 A 44.056 44.056 0 0 1 1443.119 32.565 A 35.944 35.944 0 0 1 1448.501 29.905 Q 1452.601 28.305 1457.001 28.305 A 25.63 25.63 0 0 1 1459.653 28.436 Q 1464.708 28.962 1467.551 31.605 A 10.734 10.734 0 0 1 1470.681 37.099 A 16.258 16.258 0 0 1 1471.101 40.905 L 1471.301 74.905 Z M 506.901 74.905 L 506.901 17.505 Q 506.901 12.122 508.996 8.344 A 14.188 14.188 0 0 1 509.251 7.905 Q 511.601 4.005 515.501 1.955 A 16.543 16.543 0 0 1 523.301 0 A 17.167 17.167 0 0 1 523.701 0.005 Q 526.001 0.005 528.351 0.655 A 20.369 20.369 0 0 1 532.179 2.129 A 18.658 18.658 0 0 1 532.701 2.405 L 530.801 8.405 Q 529.301 7.705 527.551 7.155 Q 525.801 6.605 523.901 6.605 Q 521.401 6.605 519.251 7.755 A 8.317 8.317 0 0 0 515.93 11.015 A 9.936 9.936 0 0 0 515.851 11.155 A 9.599 9.599 0 0 0 514.84 13.986 Q 514.608 15.167 514.601 16.517 A 16.288 16.288 0 0 0 514.601 16.605 L 514.601 74.905 L 506.901 74.905 Z M 90.594 23.05 A 25.805 25.805 0 0 1 96.651 25.455 Q 102.701 28.805 106.101 34.805 Q 109.501 40.805 109.501 48.605 A 30.42 30.42 0 0 1 108.555 56.331 A 25.207 25.207 0 0 1 106.101 62.405 Q 102.701 68.405 96.651 71.755 Q 90.601 75.105 82.801 75.105 A 30.984 30.984 0 0 1 75.007 74.159 A 25.805 25.805 0 0 1 68.951 71.755 Q 62.901 68.405 59.501 62.405 Q 56.101 56.405 56.101 48.605 A 30.42 30.42 0 0 1 57.046 40.879 A 25.207 25.207 0 0 1 59.501 34.805 Q 62.901 28.805 68.951 25.455 Q 75.001 22.105 82.801 22.105 A 30.984 30.984 0 0 1 90.594 23.05 Z M 82.801 28.605 A 20.252 20.252 0 0 0 76.917 29.434 A 17.658 17.658 0 0 0 73.001 31.155 Q 68.701 33.705 66.301 38.205 A 20.284 20.284 0 0 0 64.138 45.033 A 26.076 26.076 0 0 0 63.901 48.605 A 25.431 25.431 0 0 0 64.482 54.16 A 20 20 0 0 0 66.301 59.155 Q 68.701 63.705 73.001 66.255 Q 77.301 68.805 82.801 68.805 A 20.845 20.845 0 0 0 88.217 68.127 A 17.258 17.258 0 0 0 92.651 66.255 Q 96.901 63.705 99.301 59.155 A 20.561 20.561 0 0 0 101.417 52.558 A 26.646 26.646 0 0 0 101.701 48.605 Q 101.701 42.705 99.301 38.205 Q 96.901 33.705 92.651 31.155 Q 88.401 28.605 82.801 28.605 Z M 472.694 23.05 A 25.805 25.805 0 0 1 478.751 25.455 Q 484.801 28.805 488.201 34.805 Q 491.601 40.805 491.601 48.605 A 30.42 30.42 0 0 1 490.655 56.331 A 25.207 25.207 0 0 1 488.201 62.405 Q 484.801 68.405 478.751 71.755 Q 472.701 75.105 464.901 75.105 A 30.984 30.984 0 0 1 457.107 74.159 A 25.805 25.805 0 0 1 451.051 71.755 Q 445.001 68.405 441.601 62.405 Q 438.201 56.405 438.201 48.605 A 30.42 30.42 0 0 1 439.146 40.879 A 25.207 25.207 0 0 1 441.601 34.805 Q 445.001 28.805 451.051 25.455 Q 457.101 22.105 464.901 22.105 A 30.984 30.984 0 0 1 472.694 23.05 Z M 464.901 28.605 A 20.252 20.252 0 0 0 459.017 29.434 A 17.658 17.658 0 0 0 455.101 31.155 Q 450.801 33.705 448.401 38.205 A 20.284 20.284 0 0 0 446.238 45.033 A 26.076 26.076 0 0 0 446.001 48.605 A 25.431 25.431 0 0 0 446.582 54.16 A 20 20 0 0 0 448.401 59.155 Q 450.801 63.705 455.101 66.255 Q 459.401 68.805 464.901 68.805 A 20.845 20.845 0 0 0 470.317 68.127 A 17.258 17.258 0 0 0 474.751 66.255 Q 479.001 63.705 481.401 59.155 A 20.561 20.561 0 0 0 483.517 52.558 A 26.646 26.646 0 0 0 483.801 48.605 Q 483.801 42.705 481.401 38.205 Q 479.001 33.705 474.751 31.155 Q 470.501 28.605 464.901 28.605 Z M 654.094 23.05 A 25.805 25.805 0 0 1 660.151 25.455 Q 666.201 28.805 669.601 34.805 Q 673.001 40.805 673.001 48.605 A 30.42 30.42 0 0 1 672.055 56.331 A 25.207 25.207 0 0 1 669.601 62.405 Q 666.201 68.405 660.151 71.755 Q 654.101 75.105 646.301 75.105 A 30.984 30.984 0 0 1 638.507 74.159 A 25.805 25.805 0 0 1 632.451 71.755 Q 626.401 68.405 623.001 62.405 Q 619.601 56.405 619.601 48.605 A 30.42 30.42 0 0 1 620.546 40.879 A 25.207 25.207 0 0 1 623.001 34.805 Q 626.401 28.805 632.451 25.455 Q 638.501 22.105 646.301 22.105 A 30.984 30.984 0 0 1 654.094 23.05 Z M 646.301 28.605 A 20.252 20.252 0 0 0 640.417 29.434 A 17.658 17.658 0 0 0 636.501 31.155 Q 632.201 33.705 629.801 38.205 A 20.284 20.284 0 0 0 627.638 45.033 A 26.076 26.076 0 0 0 627.401 48.605 A 25.431 25.431 0 0 0 627.982 54.16 A 20 20 0 0 0 629.801 59.155 Q 632.201 63.705 636.501 66.255 Q 640.801 68.805 646.301 68.805 A 20.845 20.845 0 0 0 651.717 68.127 A 17.258 17.258 0 0 0 656.151 66.255 Q 660.401 63.705 662.801 59.155 A 20.561 20.561 0 0 0 664.917 52.558 A 26.646 26.646 0 0 0 665.201 48.605 Q 665.201 42.705 662.801 38.205 Q 660.401 33.705 656.151 31.155 Q 651.901 28.605 646.301 28.605 Z M 1009.794 23.05 A 25.805 25.805 0 0 1 1015.851 25.455 Q 1021.901 28.805 1025.301 34.805 Q 1028.701 40.805 1028.701 48.605 A 30.42 30.42 0 0 1 1027.755 56.331 A 25.207 25.207 0 0 1 1025.301 62.405 Q 1021.901 68.405 1015.851 71.755 Q 1009.801 75.105 1002.001 75.105 A 30.984 30.984 0 0 1 994.207 74.159 A 25.805 25.805 0 0 1 988.151 71.755 Q 982.101 68.405 978.701 62.405 Q 975.301 56.405 975.301 48.605 A 30.42 30.42 0 0 1 976.246 40.879 A 25.207 25.207 0 0 1 978.701 34.805 Q 982.101 28.805 988.151 25.455 Q 994.201 22.105 1002.001 22.105 A 30.984 30.984 0 0 1 1009.794 23.05 Z M 1002.001 28.605 A 20.252 20.252 0 0 0 996.117 29.434 A 17.658 17.658 0 0 0 992.201 31.155 Q 987.901 33.705 985.501 38.205 A 20.284 20.284 0 0 0 983.338 45.033 A 26.076 26.076 0 0 0 983.101 48.605 A 25.431 25.431 0 0 0 983.682 54.16 A 20 20 0 0 0 985.501 59.155 Q 987.901 63.705 992.201 66.255 Q 996.501 68.805 1002.001 68.805 A 20.845 20.845 0 0 0 1007.417 68.127 A 17.258 17.258 0 0 0 1011.851 66.255 Q 1016.101 63.705 1018.501 59.155 A 20.561 20.561 0 0 0 1020.617 52.558 A 26.646 26.646 0 0 0 1020.901 48.605 Q 1020.901 42.705 1018.501 38.205 Q 1016.101 33.705 1011.851 31.155 Q 1007.601 28.605 1002.001 28.605 Z M 1071.594 23.05 A 25.805 25.805 0 0 1 1077.651 25.455 Q 1083.701 28.805 1087.101 34.805 Q 1090.501 40.805 1090.501 48.605 A 30.42 30.42 0 0 1 1089.555 56.331 A 25.207 25.207 0 0 1 1087.101 62.405 Q 1083.701 68.405 1077.651 71.755 Q 1071.601 75.105 1063.801 75.105 A 30.984 30.984 0 0 1 1056.007 74.159 A 25.805 25.805 0 0 1 1049.951 71.755 Q 1043.901 68.405 1040.501 62.405 Q 1037.101 56.405 1037.101 48.605 A 30.42 30.42 0 0 1 1038.046 40.879 A 25.207 25.207 0 0 1 1040.501 34.805 Q 1043.901 28.805 1049.951 25.455 Q 1056.001 22.105 1063.801 22.105 A 30.984 30.984 0 0 1 1071.594 23.05 Z M 1063.801 28.605 A 20.252 20.252 0 0 0 1057.917 29.434 A 17.658 17.658 0 0 0 1054.001 31.155 Q 1049.701 33.705 1047.301 38.205 A 20.284 20.284 0 0 0 1045.138 45.033 A 26.076 26.076 0 0 0 1044.901 48.605 A 25.431 25.431 0 0 0 1045.482 54.16 A 20 20 0 0 0 1047.301 59.155 Q 1049.701 63.705 1054.001 66.255 Q 1058.301 68.805 1063.801 68.805 A 20.845 20.845 0 0 0 1069.217 68.127 A 17.258 17.258 0 0 0 1073.651 66.255 Q 1077.901 63.705 1080.301 59.155 A 20.561 20.561 0 0 0 1082.417 52.558 A 26.646 26.646 0 0 0 1082.701 48.605 Q 1082.701 42.705 1080.301 38.205 Q 1077.901 33.705 1073.651 31.155 Q 1069.401 28.605 1063.801 28.605 Z M 1655.894 23.05 A 25.805 25.805 0 0 1 1661.951 25.455 Q 1668.001 28.805 1671.401 34.805 Q 1674.801 40.805 1674.801 48.605 A 30.42 30.42 0 0 1 1673.855 56.331 A 25.207 25.207 0 0 1 1671.401 62.405 Q 1668.001 68.405 1661.951 71.755 Q 1655.901 75.105 1648.101 75.105 A 30.984 30.984 0 0 1 1640.307 74.159 A 25.805 25.805 0 0 1 1634.251 71.755 Q 1628.201 68.405 1624.801 62.405 Q 1621.401 56.405 1621.401 48.605 A 30.42 30.42 0 0 1 1622.346 40.879 A 25.207 25.207 0 0 1 1624.801 34.805 Q 1628.201 28.805 1634.251 25.455 Q 1640.301 22.105 1648.101 22.105 A 30.984 30.984 0 0 1 1655.894 23.05 Z M 1648.101 28.605 A 20.252 20.252 0 0 0 1642.217 29.434 A 17.658 17.658 0 0 0 1638.301 31.155 Q 1634.001 33.705 1631.601 38.205 A 20.284 20.284 0 0 0 1629.438 45.033 A 26.076 26.076 0 0 0 1629.201 48.605 A 25.431 25.431 0 0 0 1629.782 54.16 A 20 20 0 0 0 1631.601 59.155 Q 1634.001 63.705 1638.301 66.255 Q 1642.601 68.805 1648.101 68.805 A 20.845 20.845 0 0 0 1653.517 68.127 A 17.258 17.258 0 0 0 1657.951 66.255 Q 1662.201 63.705 1664.601 59.155 A 20.561 20.561 0 0 0 1666.717 52.558 A 26.646 26.646 0 0 0 1667.001 48.605 Q 1667.001 42.705 1664.601 38.205 Q 1662.201 33.705 1657.951 31.155 Q 1653.701 28.605 1648.101 28.605 Z M 914.901 74.905 L 914.901 0.705 L 922.701 0.705 L 922.701 74.905 L 914.901 74.905 Z M 1523.501 74.905 L 1523.501 0.705 L 1531.301 0.705 L 1531.301 74.905 L 1523.501 74.905 Z M 1130.827 22.779 A 21.671 21.671 0 0 1 1136.901 25.305 Q 1142.301 28.605 1145.251 34.555 Q 1148.104 40.31 1148.104 48.076 A 42.838 42.838 0 0 1 1148.101 48.605 A 42.842 42.842 0 0 1 1148.104 49.134 Q 1148.104 56.901 1145.251 62.705 A 22.861 22.861 0 0 1 1140.221 69.532 A 21.47 21.47 0 0 1 1136.951 72.005 Q 1131.601 75.305 1124.301 75.305 Q 1116.801 75.305 1111.051 71.855 Q 1105.301 68.405 1102.101 62.405 A 27.109 27.109 0 0 1 1099.183 53.077 A 34.482 34.482 0 0 1 1098.901 48.605 A 33.029 33.029 0 0 1 1099.651 41.409 A 25.836 25.836 0 0 1 1102.101 34.755 Q 1105.301 28.805 1111.001 25.405 Q 1116.701 22.005 1124.201 22.005 A 27.196 27.196 0 0 1 1130.827 22.779 Z M 1144.801 74.905 L 1152.601 74.905 L 1152.601 0.705 L 1144.801 0.705 L 1144.801 74.905 Z M 1125.701 28.405 A 19.479 19.479 0 0 0 1119.667 29.314 A 17.322 17.322 0 0 0 1115.901 31.055 Q 1111.601 33.705 1109.151 38.255 A 20.468 20.468 0 0 0 1106.894 45.493 A 25.921 25.921 0 0 0 1106.701 48.705 Q 1106.701 54.605 1109.151 59.155 Q 1111.601 63.705 1115.901 66.305 A 18.109 18.109 0 0 0 1124.011 68.841 A 22.153 22.153 0 0 0 1125.701 68.905 A 20.494 20.494 0 0 0 1131.36 68.149 A 17.412 17.412 0 0 0 1135.601 66.305 Q 1139.901 63.705 1142.351 59.155 A 20.468 20.468 0 0 0 1144.607 51.917 A 25.921 25.921 0 0 0 1144.801 48.705 Q 1144.801 42.805 1142.351 38.255 Q 1139.901 33.705 1135.601 31.055 A 17.884 17.884 0 0 0 1127.755 28.498 A 22.234 22.234 0 0 0 1125.701 28.405 Z M 263.456 23.009 A 23.228 23.228 0 0 1 269.401 25.505 Q 275.101 28.905 278.301 34.905 A 27.109 27.109 0 0 1 281.219 44.232 A 34.482 34.482 0 0 1 281.501 48.705 Q 281.501 56.405 278.301 62.405 Q 275.101 68.405 269.451 71.755 A 23.852 23.852 0 0 1 260.373 74.84 A 30.426 30.426 0 0 1 256.301 75.105 A 26.93 26.93 0 0 1 249.76 74.342 A 21.559 21.559 0 0 1 243.751 71.855 Q 238.401 68.605 235.451 62.655 A 27.72 27.72 0 0 1 232.987 54.866 A 37.35 37.35 0 0 1 232.501 48.705 A 37.575 37.575 0 0 1 233.106 41.795 A 27.79 27.79 0 0 1 235.451 34.605 A 22.677 22.677 0 0 1 240.215 28.046 A 21.044 21.044 0 0 1 243.751 25.355 Q 249.101 22.105 256.201 22.105 A 28.059 28.059 0 0 1 263.456 23.009 Z M 254.801 28.405 A 19.479 19.479 0 0 0 248.767 29.314 A 17.322 17.322 0 0 0 245.001 31.055 Q 240.701 33.705 238.301 38.205 A 20.284 20.284 0 0 0 236.138 45.033 A 26.076 26.076 0 0 0 235.901 48.605 Q 235.901 54.405 238.301 58.955 Q 240.701 63.505 245.001 66.105 A 18.109 18.109 0 0 0 253.111 68.641 A 22.153 22.153 0 0 0 254.801 68.705 Q 260.301 68.705 264.551 66.105 Q 268.801 63.505 271.201 58.955 Q 273.601 54.405 273.601 48.605 Q 273.601 42.705 271.201 38.205 Q 268.801 33.705 264.551 31.055 A 17.582 17.582 0 0 0 256.489 28.469 A 21.69 21.69 0 0 0 254.801 28.405 Z M 228.101 94.305 L 228.101 22.305 L 235.901 22.305 L 235.901 94.305 L 228.101 94.305 Z M 1289.53 22.102 Q 1292.736 22.102 1295.537 22.795 A 19.721 19.721 0 0 1 1301.201 25.155 A 21.354 21.354 0 0 1 1308.97 33.604 A 25.321 25.321 0 0 1 1309.151 33.955 A 25.118 25.118 0 0 1 1311.45 41.111 Q 1311.943 44.022 1311.901 47.305 A 40.709 40.709 0 0 1 1311.904 47.833 Q 1311.904 55.201 1309.201 60.705 A 21.474 21.474 0 0 1 1304.535 67.066 A 20.113 20.113 0 0 1 1301.301 69.505 A 21.173 21.173 0 0 1 1293.239 72.331 A 27.508 27.508 0 0 1 1289.301 72.605 A 26.722 26.722 0 0 1 1282.431 71.754 A 22.088 22.088 0 0 1 1276.801 69.405 Q 1271.401 66.205 1268.351 60.455 A 26.119 26.119 0 0 1 1265.542 51.337 A 32.835 32.835 0 0 1 1265.301 47.305 Q 1265.301 39.905 1268.301 34.255 Q 1271.301 28.605 1276.701 25.355 A 22.775 22.775 0 0 1 1286.427 22.229 A 28.283 28.283 0 0 1 1289.101 22.105 A 30.032 30.032 0 0 1 1289.53 22.102 Z M 1290.701 28.205 A 18.482 18.482 0 0 0 1284.772 29.133 A 16.652 16.652 0 0 0 1281.401 30.705 Q 1277.301 33.205 1275.001 37.555 A 20.617 20.617 0 0 0 1272.831 44.454 A 25.885 25.885 0 0 0 1272.601 47.505 Q 1272.701 53.005 1275.001 57.355 Q 1277.301 61.705 1281.351 64.155 A 16.998 16.998 0 0 0 1288.442 66.487 A 21.299 21.299 0 0 0 1290.701 66.605 A 19.453 19.453 0 0 0 1295.979 65.913 A 16.382 16.382 0 0 0 1300.051 64.155 Q 1304.101 61.705 1306.401 57.355 A 19.921 19.921 0 0 0 1308.583 49.938 A 24.578 24.578 0 0 0 1308.701 47.505 A 23.941 23.941 0 0 0 1308.161 42.311 A 18.741 18.741 0 0 0 1306.401 37.505 Q 1304.101 33.205 1300.051 30.705 Q 1296.001 28.205 1290.701 28.205 Z M 848.801 74.905 L 848.801 22.305 L 856.601 22.305 L 856.601 74.905 L 848.801 74.905 Z M 123.201 74.905 L 123.201 22.305 L 130.901 22.305 L 130.901 74.905 L 123.201 74.905 Z M 686.701 74.905 L 686.701 22.305 L 694.401 22.305 L 694.401 74.905 L 686.701 74.905 Z M 1334.201 74.905 L 1334.201 22.305 L 1341.901 22.305 L 1341.901 74.905 L 1334.201 74.905 Z M 1496.301 74.905 L 1496.301 22.305 L 1504.001 22.305 L 1504.001 74.905 L 1496.301 74.905 Z M 1688.501 74.905 L 1688.501 22.305 L 1696.201 22.305 L 1696.201 74.905 L 1688.501 74.905 Z M 500.101 29.705 L 500.101 23.905 L 529.701 23.905 L 529.701 29.705 L 500.101 29.705 Z M 1501.969 2.513 A 4.797 4.797 0 0 1 1503.751 3.655 A 4.894 4.894 0 0 1 1505.195 7.033 A 6.47 6.47 0 0 1 1505.201 7.305 Q 1505.201 9.405 1503.751 10.905 A 4.839 4.839 0 0 1 1500.237 12.403 A 6.352 6.352 0 0 1 1500.101 12.405 A 4.903 4.903 0 0 1 1496.548 10.951 A 6.017 6.017 0 0 1 1496.501 10.905 A 4.905 4.905 0 0 1 1495.001 7.37 A 5.844 5.844 0 0 1 1495.001 7.305 A 5.296 5.296 0 0 1 1495.33 5.407 A 4.786 4.786 0 0 1 1496.501 3.655 Q 1498.001 2.205 1500.101 2.205 A 5.474 5.474 0 0 1 1501.969 2.513 Z M 1554.557 67.261 A 5.506 5.506 0 0 1 1554.601 67.305 A 4.723 4.723 0 0 1 1555.999 70.67 A 6.2 6.2 0 0 1 1556.001 70.805 A 5.175 5.175 0 0 1 1555.683 72.647 A 4.651 4.651 0 0 1 1554.601 74.305 A 4.622 4.622 0 0 1 1551.263 75.704 A 5.671 5.671 0 0 1 1551.201 75.705 A 5.175 5.175 0 0 1 1549.358 75.387 A 4.651 4.651 0 0 1 1547.701 74.305 A 4.723 4.723 0 0 1 1546.302 70.939 A 6.2 6.2 0 0 1 1546.301 70.805 A 5.175 5.175 0 0 1 1546.619 68.962 A 4.651 4.651 0 0 1 1547.701 67.305 A 4.723 4.723 0 0 1 1551.066 65.906 A 6.2 6.2 0 0 1 1551.201 65.905 A 4.624 4.624 0 0 1 1554.557 67.261 Z" vector-effect="non-scaling-stroke"/></g></svg>