<?xml version="1.0" standalone="no"?>
<!DOCTYPE svg PUBLIC "-//W3C//DTD SVG 20010904//EN"
 "http://www.w3.org/TR/2001/REC-SVG-20010904/DTD/svg10.dtd">
<svg version="1.0" xmlns="http://www.w3.org/2000/svg"
 width="700.000000pt" height="700.000000pt" viewBox="0 0 700.000000 700.000000"
 preserveAspectRatio="xMidYMid meet">
<metadata>
Created by potrace 1.14, written by Peter Selinger 2001-2017
</metadata>
<g transform="translate(0.000000,700.000000) scale(0.100000,-0.100000)"
fill="#000000" stroke="none">
<path d="M1309 5046 c-2 -2 -33 -7 -69 -11 -36 -4 -68 -9 -71 -11 -4 -2 -24
-6 -45 -10 -65 -9 -209 -58 -305 -102 -359 -165 -631 -505 -746 -932 -19 -73
-22 -85 -33 -150 -6 -30 -12 -66 -15 -80 -25 -126 -26 -534 -2 -675 18 -105
25 -143 34 -170 4 -11 8 -24 9 -30 7 -31 70 -198 91 -240 186 -371 555 -615
1014 -672 93 -12 622 -8 704 5 125 20 139 23 235 55 187 61 356 167 436 274
90 119 160 284 188 443 14 76 15 395 2 455 -22 102 -32 138 -61 210 -93 230
-243 387 -468 489 -192 88 -465 135 -657 115 -309 -34 -573 -173 -710 -374
-85 -125 -144 -321 -151 -505 -1 -40 -3 -35 -19 45 -38 189 -42 490 -9 713 17
114 21 136 50 243 88 336 268 597 489 713 139 73 184 81 440 81 252 0 321 -10
464 -62 162 -60 348 -252 440 -455 44 -95 60 -144 151 -453 77 -263 128 -430
191 -630 20 -60 39 -123 44 -140 4 -16 22 -73 38 -125 17 -52 101 -322 188
-600 86 -278 158 -506 159 -507 1 -2 48 6 106 17 57 11 115 21 129 24 14 2 77
13 140 25 63 12 124 23 135 25 155 27 215 41 218 50 63 156 160 396 167 411
25 54 138 349 229 595 56 151 110 298 121 325 10 28 32 88 48 134 20 59 31 79
35 65 3 -10 22 -82 43 -159 38 -144 218 -797 234 -850 5 -16 18 -59 29 -95 38
-131 61 -208 97 -325 20 -66 43 -145 52 -175 8 -30 18 -58 21 -62 3 -4 40 0
81 8 41 8 92 16 114 19 21 3 41 7 45 9 3 2 24 7 46 10 125 19 431 78 436 84 9
10 381 890 506 1197 277 679 416 1048 583 1548 37 111 66 205 64 208 -2 3
-216 5 -476 5 l-472 -1 -1 -33 c0 -18 2 -35 5 -37 3 -2 34 -6 68 -10 138 -14
240 -64 278 -136 24 -48 24 -96 -2 -222 -13 -67 -27 -135 -30 -152 -3 -16 -16
-77 -30 -135 -102 -430 -186 -730 -330 -1185 -47 -147 -170 -512 -187 -555 -6
-14 -11 -29 -13 -35 -2 -9 -36 -104 -79 -224 -7 -18 -15 -30 -17 -25 -7 13
-28 84 -118 404 -44 157 -89 314 -99 350 -32 111 -83 293 -91 330 -5 19 -27
103 -49 185 -57 207 -207 801 -242 959 -55 240 -59 261 -59 289 0 72 54 125
145 143 22 5 43 9 48 10 4 1 25 2 47 3 40 1 40 1 40 41 l0 40 -723 0 -724 0
-1 -40 c-2 -39 -1 -40 32 -40 62 0 182 -28 249 -58 75 -34 156 -106 194 -169
22 -38 63 -166 77 -241 3 -15 12 -56 21 -92 10 -41 13 -78 9 -100 -9 -46 -11
-54 -23 -125 -12 -68 -15 -80 -36 -185 -21 -104 -21 -102 -50 -230 -86 -375
-322 -1171 -404 -1365 -5 -11 -14 -33 -19 -50 -6 -16 -13 -39 -17 -50 -8 -24
0 -48 -135 390 -56 182 -114 371 -130 420 -16 50 -47 149 -70 220 -95 298
-106 331 -205 660 -56 185 -126 427 -140 485 -2 8 -20 82 -40 164 -39 156 -41
205 -12 250 28 42 121 75 217 76 35 0 36 1 36 40 l0 40 -1061 0 c-585 0 -1064
-2 -1066 -4z m514 -1235 c122 -42 230 -130 308 -249 52 -79 104 -202 120 -285
6 -29 13 -65 17 -82 3 -16 6 -113 6 -215 0 -159 -3 -198 -23 -280 -45 -181
-119 -318 -236 -435 -245 -245 -529 -224 -757 55 -83 103 -154 270 -183 436
-15 84 -22 327 -11 384 3 14 7 41 10 60 25 163 120 350 238 469 66 67 177 136
238 148 13 2 27 6 29 9 2 2 46 4 96 4 65 0 108 -6 148 -19z"/>
</g>
</svg>
